<svg width="388" height="246" viewBox="0 0 388 246" fill="none" xmlns="http://www.w3.org/2000/svg">
<mask id="mask0_547_347" style="mask-type:luminance" maskUnits="userSpaceOnUse" x="178" y="56" width="210" height="136">
<path d="M178.198 56H387.198V192H178.198V56Z" fill="white"/>
</mask>
<g mask="url(#mask0_547_347)">
<path d="M341.875 184.073C344.047 184.38 345.745 184.693 346.984 184.693C357.203 185.62 367.417 186.703 377.635 188.099C379.49 188.406 384.292 188.719 385.682 189.953C385.839 190.109 385.839 190.109 385.682 190.266C384.906 190.573 384.443 190.885 384.135 190.885C378.406 191.505 372.526 191.812 366.646 191.812C317.422 192.432 268.042 190.729 218.974 188.25C212.474 187.943 202.26 187.167 188.172 186.083C134.771 181.75 84.1562 177.26 36.3281 172.927C33.8489 172.776 31.9947 172.62 30.5989 172.464C36.0156 172.307 41.2812 172.156 46.6979 172C46.8541 172 46.8541 172 46.6979 171.844C39.1145 167.047 35.3958 159.151 34.1614 150.328C34.1614 150.021 34.0052 149.865 33.6927 149.708L25.3385 144.911C24.8697 144.604 24.7187 143.984 25.026 143.521C26.8854 140.734 28.5885 139.182 27.9687 135.625C27.3489 132.062 26.8854 128.661 26.2656 125.255C25.6458 121.693 25.3385 119.062 25.3385 117.359C25.4895 110.859 27.8125 103.12 29.3593 97.8541C30.1354 95.0677 30.4427 92.901 33.2291 91.6666C35.7083 90.5833 38.0312 89.9635 40.3489 89.651C46.6979 88.8802 53.6614 88.4166 61.2447 88.2604C68.677 88.1041 75.6406 87.9479 82.2968 88.5677C89.2656 89.1875 95.4531 92.4375 101.802 95.5364C102.573 96 104.432 96 105.516 96C135.854 96.3072 162.786 96 196.531 96.151C207.214 96.151 216.964 96.4635 225.63 96.927C249.932 98.3229 273.464 103.12 296.37 111.479C298.693 112.25 301.167 113.49 303.49 114.417C303.646 114.417 303.646 114.417 303.646 114.266V114.109C279.964 99.5572 251.792 93.2135 224.396 93.0572C206.13 92.901 191.422 92.901 180.281 93.0572C179.812 93.0572 179.661 92.901 179.349 92.75C174.088 86.401 168.672 80.3645 163.099 74.3281C157.37 68.1354 151.49 63.1822 142.667 62.2552C119.135 59.9322 93.5989 70.7708 73.7864 83.7708C73.7864 83.7708 73.6302 83.7708 73.6302 83.927C73.6302 84.0781 73.4739 84.0781 73.6302 83.927C91.276 73.552 112.328 64.2656 133.068 63.1822C139.88 62.875 147 63.6458 152.88 67.3645C155.823 69.375 159.229 72.1614 162.943 76.1875C168.052 81.6041 172.849 87.177 177.646 92.75V92.901C164.026 92.901 150.25 92.901 136.63 92.901C127.344 92.901 118.052 93.2135 108.615 92.901C105.828 92.75 102.109 90.5833 99.6354 89.3437C96.0729 87.6406 92.9791 86.401 89.5729 86.2447C82.7604 85.9375 75.0208 85.9375 66.0468 86.5572C65.8906 86.5572 65.8906 86.5572 66.0468 86.401C89.2656 70.4583 113.255 59.0052 141.271 56.8385C164.333 55.1354 189.568 56.6822 213.25 59.9322C215.88 60.2447 218.667 60.8593 221.609 61.7916C241.266 67.3645 260.615 78.0416 276.865 87.6406C277.177 87.7968 277.177 87.9479 276.865 87.9479C274.547 87.7968 272.068 87.6406 269.901 87.6406C256.589 87.4843 243.125 87.6406 229.812 87.7968C229.812 87.7968 229.656 87.7968 229.812 87.9479C229.812 87.9479 229.812 87.9479 229.812 88.1041C243.896 88.8802 257.984 89.9635 272.068 91.3541C303.646 94.4531 334.448 101.573 363.703 113.797H363.859C364.01 113.797 364.01 113.646 363.859 113.646C354.104 108.073 344.047 103.12 333.672 98.6302C333.057 98.3229 333.057 98.1666 333.828 98.1666C351.01 98.3229 371.443 100.021 381.505 116.432C381.656 116.583 381.505 116.74 381.349 116.74C365.714 118.906 350.083 121.536 333.828 120.609C321.135 119.838 308.443 118.599 295.594 117.516C271.604 115.656 247.766 112.87 223.776 110.547C223.776 110.547 223.776 110.547 223.62 110.547C223.62 110.547 223.62 110.547 223.62 110.703C233.062 114.729 242.349 118.906 251.792 122.932C257.521 125.406 264.172 128.193 270.984 128.505C277.333 128.812 284.604 129.125 292.964 129.125C293.583 129.125 293.896 129.276 294.359 128.661C299.156 122.932 305.5 120.302 313.089 120.766C319.745 121.073 326.245 121.849 332.745 122.312C340.948 122.932 348.687 122.62 356.74 121.536C360.141 121.073 362.464 120.922 363.703 121.073C368.5 121.536 372.062 124.323 374.229 129.125C374.229 129.276 374.385 129.276 374.536 129.276L385.062 128.193C385.219 128.193 385.219 128.193 385.219 128.349L386.146 133.766C386.146 133.922 385.99 134.078 385.839 134.078C365.87 135.161 345.745 135.781 325.781 135.625C302.87 135.312 282.437 134.229 261.698 133.922V134.078C262.318 134.229 262.781 134.229 263.401 134.229C283.057 135.932 302.562 137.792 322.219 139.339C330.115 139.958 337.234 140.734 344.818 139.958C357.823 138.719 375 136.245 386.146 134.542C386.302 134.542 386.302 134.542 386.458 134.698L387.078 146.151C387.078 146.307 386.922 146.458 386.766 146.458L366.646 149.089C366.49 149.089 366.333 149.245 366.333 149.401C366.333 149.401 366.333 149.557 366.49 149.557C366.646 149.708 366.953 149.865 367.417 149.865C372.526 149.557 377.786 149.089 382.896 148.625C383.052 148.625 383.052 148.625 383.052 148.781L382.896 152.651C382.896 152.807 382.74 152.807 382.74 152.807C379.339 152.651 376.083 153.115 373.302 153.734C360.917 156.984 352.87 159 349.464 159.927C344.047 161.318 340.177 161.01 334.292 159.927C324.385 158.068 314.479 156.365 304.417 154.661C302.406 154.354 300.396 154.047 298.229 154.047C284.76 153.734 271.141 153.734 257.672 154.047C257.521 154.047 257.521 154.047 257.365 154.198H257.208C257.052 154.198 257.052 154.198 257.208 154.354H257.365H257.521C269.437 154.974 281.203 155.594 293.12 156.057C295.286 156.214 297.297 156.214 299.62 156.677C310.766 158.38 322.062 160.234 333.208 161.937C340.021 163.021 343.271 163.641 348.844 162.25C361.536 159.151 369.74 157.297 373.302 156.365C375.932 155.745 384.599 154.047 386.458 156.521C387.542 157.76 386.922 161.474 386.766 163.177C386.302 168.13 381.812 169.057 377.786 169.521C373.146 170.141 368.5 170.604 363.859 171.073C363.703 171.073 363.547 171.224 363.547 171.224C358.75 179.583 351.474 182.833 341.875 184.073C341.568 184.073 341.568 183.917 341.875 184.073ZM54.5937 105.443C65.1145 108.844 72.3906 122.62 75.9531 131.911C75.9531 131.911 76.1093 132.062 76.1093 131.911C76.1093 131.911 76.1093 131.911 76.1093 131.755C74.0937 119.99 66.1979 97.0833 49.9479 100.49C43.9114 101.724 37.7187 106.99 33.6927 111.943C33.6927 111.943 33.6927 111.943 33.6927 112.099C33.6927 112.099 33.6927 112.099 33.8489 112.099C39.8854 107.297 46.2343 102.807 54.5937 105.443ZM94.526 107.609L190.338 125.255C190.495 125.255 190.651 125.255 190.651 125.099C192.198 120.922 194.365 117.203 197.151 113.953C197.151 113.953 197.151 113.797 197.151 113.646C197.151 113.646 197.151 113.646 196.995 113.646C164.026 111.63 131.057 109.62 98.0885 107.76C97.0052 107.453 95.7656 107.453 94.526 107.609C94.526 107.453 94.526 107.453 94.526 107.609ZM42.8281 164.724C45.151 166.583 47.4687 167.203 50.1041 166.583C54.4375 165.5 57.6875 161.167 59.2343 157.141C62.177 149.865 62.9479 141.661 61.2447 134.078C60.1614 128.969 56.9114 120.922 51.0312 119.682C43.7552 118.135 38.802 127.422 37.2552 132.995C34.776 142.437 34.625 158.068 42.8281 164.724ZM211.703 179.74C222.224 179.74 230.896 166.891 230.896 150.792C231.047 134.849 222.536 121.849 212.01 121.693C201.484 121.693 192.818 134.542 192.818 150.641C192.661 166.734 201.177 179.74 211.703 179.74ZM92.8229 144.755C116.198 147.542 139.568 150.328 162.943 153.115C163.099 153.115 163.099 153.115 163.25 153.115C163.406 153.115 163.406 152.958 163.25 152.958C145.297 150.021 127.031 147.542 108.922 145.068C102.422 144.135 97.1562 143.828 91.276 144.448C90.9687 144.448 90.9687 144.604 91.276 144.604C91.7395 144.604 92.2031 144.755 92.8229 144.755ZM266.807 148.937C278.724 150.177 290.953 150.792 303.802 150.792C303.953 150.792 303.953 150.792 304.109 150.792C304.266 150.792 304.266 150.641 304.266 150.641C304.266 150.484 304.266 150.328 304.109 150.328C291.88 149.401 279.187 148.474 266.958 148.625C263.865 148.474 263.865 148.625 266.807 148.937ZM95.7656 172C127.344 172.62 158.766 173.391 190.338 174.786C192.354 174.943 194.365 174.786 196.531 174.63C196.687 174.63 196.844 174.474 196.687 174.323C196.687 174.167 196.531 174.167 196.375 174.167C195.448 174.01 194.521 174.01 193.588 174.01C173.005 173.703 152.88 169.37 132.76 165.651C123.474 163.953 117.125 163.021 113.411 162.557C102.729 161.474 91.8958 161.01 81.2135 160.698C81.0625 160.698 80.9062 160.698 80.9062 160.854C78.1197 165.651 75.3333 169.214 70.0677 171.38C70.0677 171.38 69.9166 171.536 70.0677 171.536C70.0677 171.536 70.0677 171.536 70.2239 171.536C78.7395 171.844 87.4062 171.844 95.7656 172ZM252.875 178.036C277.177 179.427 301.63 180.516 325.781 182.526C325.932 182.526 325.932 182.526 325.932 182.37C325.932 182.37 325.932 182.214 325.781 182.214C320.672 180.359 316.646 177.26 313.552 172.927C313.552 172.776 313.396 172.776 313.24 172.776L250.708 174.01C250.552 174.01 250.552 174.01 250.396 174.167C249.781 175.406 249.005 176.49 248.078 177.417C248.078 177.417 248.078 177.573 248.078 177.729C248.078 177.729 248.078 177.729 248.229 177.729C249.781 177.88 251.328 178.036 252.875 178.036Z" fill="white"/>
</g>
<path d="M214.953 125.719C220.99 127.266 225.01 133.146 226.714 138.875C226.714 139.031 226.714 139.031 226.563 139.182L216.344 144.604C215.724 144.911 215.104 144.755 214.797 144.135C214.641 143.984 214.641 143.828 214.641 143.521L214.797 125.875C214.797 125.875 214.797 125.719 214.953 125.719Z" fill="white"/>
<path d="M198.078 138.256C198.078 138.256 197.927 138.099 198.078 138.099C200.093 132.683 203.495 128.042 209.067 126.026C209.224 126.026 209.38 126.026 209.38 126.183C209.38 126.183 209.38 126.183 209.38 126.339C209.38 131.912 209.38 137.485 209.38 143.052C209.38 144.136 208.916 144.604 207.984 145.068C207.833 145.068 207.677 145.068 207.677 145.068C204.583 142.438 201.328 140.266 198.078 138.256Z" fill="white"/>
<path d="M205.51 151.104C207.833 152.651 206.75 155.131 205.51 157.297C203.344 160.547 201.484 164.104 199.318 167.511C199.161 167.667 199.161 167.667 199.01 167.511C195.76 160.698 194.672 153.578 195.604 146.151C195.604 145.995 195.76 145.995 195.911 145.995C200.557 148.162 203.807 150.021 205.51 151.104Z" fill="white"/>
<path d="M217.427 152.344C217.583 152.188 217.739 152.031 217.89 151.875L228.416 147.078C228.573 147.078 228.573 147.078 228.573 147.235C229.193 154.354 227.953 161.474 224.396 167.511C224.239 167.667 224.083 167.667 223.927 167.667C223.927 167.667 223.776 167.667 223.776 167.511C221.916 164.261 220.057 160.854 218.047 157.448C217.12 155.438 216.344 154.354 217.427 152.344Z" fill="white"/>
<path d="M219.443 173.86C214.177 177.88 208.604 177.88 203.651 173.391C203.495 173.24 203.495 173.084 203.495 172.927L210.463 160.391C210.927 159.615 211.703 159.464 212.474 159.771C212.786 159.927 212.937 160.084 213.094 160.391L219.443 173.391C219.594 173.703 219.594 173.703 219.443 173.86Z" fill="white"/>
<mask id="mask1_547_347" style="mask-type:luminance" maskUnits="userSpaceOnUse" x="176" y="17" width="3" height="228">
<path d="M176.797 17.3335H178.667V244H176.797V17.3335Z" fill="white"/>
</mask>
<g mask="url(#mask1_547_347)">
<path d="M177.771 243.183L177.974 240.339L178.141 236.308C178.24 233.219 178.323 229.547 178.391 225.281L178.479 218.594C178.526 213.891 178.563 208.901 178.589 203.63C178.641 192.88 178.661 182.214 178.656 171.625C178.661 140.646 178.656 108.839 178.651 76.1929C178.63 51.1669 178.328 31.6356 177.74 17.6044L177.276 46.9012L177.172 54.4481C177.104 59.6408 177.052 65.0002 177.01 70.521C176.927 81.7242 176.875 92.5992 176.849 103.151C176.823 110.464 176.813 122.63 176.818 139.646C176.818 153.651 176.839 164.849 176.87 173.24C176.891 178.276 176.917 183.255 176.948 188.172L177.005 195.349C177.047 200.052 177.099 204.386 177.156 208.36L177.453 225.62L177.526 229.589C177.604 233.261 177.677 236.401 177.755 239.016C177.76 238.933 177.766 240.323 177.771 243.183Z" fill="white"/>
</g>
<mask id="mask2_547_347" style="mask-type:luminance" maskUnits="userSpaceOnUse" x="176" y="2" width="3" height="228">
<path d="M176.797 2.66699H178.667V229.334H176.797V2.66699Z" fill="white"/>
</mask>
<g mask="url(#mask2_547_347)">
<path d="M177.771 2.72424L177.974 5.56799L178.141 9.59924C178.24 12.6878 178.323 16.3597 178.391 20.6253L178.479 27.318C178.526 32.0211 178.563 37.0055 178.589 42.2815C178.641 53.0263 178.661 63.693 178.656 74.2815C178.661 105.261 178.656 137.073 178.651 169.714C178.63 194.74 178.328 214.271 177.74 228.308L177.276 199.011L177.172 191.464C177.104 186.266 177.052 180.912 177.01 175.391C176.927 164.188 176.875 153.308 176.849 142.755C176.823 135.443 176.813 123.282 176.818 106.261C176.818 92.2555 176.839 81.0576 176.87 72.667C176.891 67.6305 176.917 62.6513 176.948 57.7347L177.005 50.5576C177.047 45.8545 177.099 41.5211 177.156 37.5472L177.453 20.2867L177.526 16.318C177.604 12.6513 177.677 9.50549 177.755 6.89091C177.76 6.97424 177.766 5.58362 177.771 2.72424Z" fill="white"/>
</g>
<mask id="mask3_547_347" style="mask-type:luminance" maskUnits="userSpaceOnUse" x="0" y="38" width="171" height="153">
<path d="M170.667 38.667H0V190.667H170.667V38.667Z" fill="white"/>
</mask>
<g mask="url(#mask3_547_347)">
<path d="M20.6247 70.1167H34.3747L39.3538 105.721H30.2913L29.2913 98.9917H13.5413L9.68717 105.721H0.583008L20.6247 70.1167ZM17.6663 91.7209H28.2288L26.083 76.9292L17.6663 91.7209Z" fill="white"/>
<path d="M49.9258 70.1167H58.5299L52.5299 98.45H74.8216L73.2591 105.721H42.3633L49.9258 70.1167Z" fill="white"/>
<path d="M88.6196 70.1167H111.599C112.818 70.1167 113.818 70.5073 114.599 71.2834C115.375 72.0646 115.765 73.0282 115.765 74.1792C115.765 74.3355 115.765 74.5073 115.765 74.7C115.765 74.8823 115.734 75.049 115.682 75.2L110.286 100.638C110.088 101.554 109.672 102.398 109.036 103.158C108.396 103.924 107.63 104.544 106.745 105.013C105.87 105.486 104.974 105.721 104.057 105.721H96.9113L95.3071 113.367H86.6613L88.2655 105.721H81.078C79.88 105.721 78.9009 105.325 78.1405 104.533C77.3748 103.742 76.9946 102.778 76.9946 101.638C76.9946 101.486 76.9998 101.325 77.0155 101.158C77.0415 100.992 77.0675 100.82 77.0988 100.638L82.4946 75.2C82.703 74.2834 83.1092 73.4396 83.7238 72.6584C84.3332 71.8823 85.0675 71.2625 85.9321 70.8042C86.8071 70.3459 87.703 70.1167 88.6196 70.1167ZM91.9321 77.3875C91.5571 77.3875 91.2134 77.5073 90.9113 77.7417C90.604 77.9657 90.4217 78.2573 90.3696 78.6167L86.4321 97.2C86.4321 97.2417 86.4217 97.2834 86.4113 97.325C86.3957 97.3667 86.3905 97.424 86.3905 97.4917C86.3905 98.1323 86.7342 98.45 87.4321 98.45H100.807C101.167 98.45 101.5 98.3407 101.807 98.1167C102.109 97.8823 102.297 97.575 102.37 97.2L106.286 78.6167C106.286 78.5646 106.292 78.5125 106.307 78.4709C106.333 78.4188 106.349 78.3771 106.349 78.3459C106.349 77.7105 105.995 77.3875 105.286 77.3875H91.9321Z" fill="white"/>
<path d="M121.765 70.1167H130.369L124.64 97.2C124.64 97.2417 124.629 97.2834 124.619 97.325C124.603 97.3667 124.598 97.424 124.598 97.4917C124.598 98.1323 124.942 98.45 125.64 98.45H139.015C139.374 98.45 139.707 98.3407 140.015 98.1167C140.317 97.8823 140.504 97.575 140.577 97.2L146.285 70.1167H154.931L148.494 100.638C148.296 101.554 147.879 102.398 147.244 103.158C146.603 103.924 145.838 104.544 144.952 105.013C144.077 105.486 143.181 105.721 142.265 105.721H119.285C118.088 105.721 117.108 105.325 116.348 104.533C115.582 103.742 115.202 102.778 115.202 101.638C115.202 101.486 115.207 101.325 115.223 101.158C115.249 100.992 115.275 100.82 115.306 100.638L121.765 70.1167Z" fill="white"/>
<path d="M159.972 70.1167H168.576L161.014 105.721H152.41L159.972 70.1167Z" fill="white"/>
<path d="M27.2424 117.592H40.9924L45.9715 153.196H36.909L35.909 146.467H20.159L16.3049 153.196H7.20068L27.2424 117.592ZM24.284 139.196H34.8465L32.7007 124.405L24.284 139.196Z" fill="white"/>
<path d="M56.543 117.592H65.1471L59.418 144.675C59.418 144.717 59.4076 144.759 59.3971 144.8C59.3815 144.842 59.3763 144.899 59.3763 144.967C59.3763 145.608 59.7201 145.925 60.418 145.925H73.793C74.1523 145.925 74.4857 145.816 74.793 145.592C75.0951 145.358 75.2826 145.05 75.3555 144.675L81.0638 117.592H89.7096L83.2721 148.113C83.0742 149.03 82.6576 149.873 82.0221 150.634C81.3815 151.399 80.6159 152.019 79.7305 152.488C78.8555 152.962 77.9596 153.196 77.043 153.196H54.0638C52.8659 153.196 51.8867 152.8 51.1263 152.009C50.3607 151.217 49.9805 150.254 49.9805 149.113C49.9805 148.962 49.9857 148.8 50.0013 148.634C50.0273 148.467 50.0534 148.295 50.0846 148.113L56.543 117.592Z" fill="white"/>
<path d="M92.6883 117.592H125.876L124.355 124.863H112.084L106.042 153.196H97.3966L103.438 124.863H91.1675L92.6883 117.592Z" fill="white"/>
<path d="M133.948 117.592H156.927C158.146 117.592 159.146 117.983 159.927 118.759C160.703 119.54 161.094 120.504 161.094 121.655C161.094 121.811 161.094 121.983 161.094 122.175C161.094 122.358 161.063 122.524 161.011 122.675L155.615 148.113C155.417 149.03 155 149.873 154.365 150.634C153.724 151.399 152.959 152.019 152.073 152.488C151.198 152.962 150.302 153.196 149.386 153.196H126.407C125.209 153.196 124.229 152.8 123.469 152.009C122.703 151.217 122.323 150.254 122.323 149.113C122.323 148.962 122.328 148.8 122.344 148.634C122.37 148.467 122.396 148.295 122.427 148.113L127.823 122.675C128.032 121.759 128.438 120.915 129.052 120.134C129.662 119.358 130.396 118.738 131.261 118.28C132.136 117.821 133.032 117.592 133.948 117.592ZM137.261 124.863C136.886 124.863 136.542 124.983 136.24 125.217C135.933 125.441 135.75 125.733 135.698 126.092L131.761 144.675C131.761 144.717 131.75 144.759 131.74 144.8C131.724 144.842 131.719 144.899 131.719 144.967C131.719 145.608 132.063 145.925 132.761 145.925H146.136C146.495 145.925 146.828 145.816 147.136 145.592C147.438 145.358 147.625 145.05 147.698 144.675L151.615 126.092C151.615 126.04 151.62 125.988 151.636 125.946C151.662 125.894 151.677 125.853 151.677 125.821C151.677 125.186 151.323 124.863 150.615 124.863H137.261Z" fill="white"/>
</g>
<mask id="mask4_547_347" style="mask-type:luminance" maskUnits="userSpaceOnUse" x="9" y="157" width="161" height="21">
<path d="M169.333 157.333H9.3335V177.333H169.333V157.333Z" fill="white"/>
</mask>
<g mask="url(#mask4_547_347)">
<mask id="mask5_547_347" style="mask-type:luminance" maskUnits="userSpaceOnUse" x="9" y="161" width="9" height="9">
<path d="M9.59912 161.333H17.3335V169.333H9.59912V161.333Z" fill="white"/>
</mask>
<g mask="url(#mask5_547_347)">
<path d="M13.9365 162.52H15.2907L16.4782 168.979H15.5615L15.2282 167.27H11.9782L10.9365 168.979H9.99902L13.9365 162.52ZM12.5199 166.416H15.0615L14.4574 163.27L12.5199 166.416Z" fill="white"/>
</g>
<path d="M22.1862 162.52H23.082L21.8945 168.124H26.0612L25.8737 168.979H20.832L22.1862 162.52Z" fill="white"/>
<path d="M32.458 162.52H36.0622C36.2809 162.52 36.4632 162.598 36.6038 162.749C36.7393 162.89 36.8122 163.062 36.8122 163.27C36.8122 163.302 36.8122 163.333 36.8122 163.374C36.8122 163.406 36.8018 163.432 36.7913 163.458L35.8122 168.062C35.7809 168.229 35.708 168.385 35.583 168.52C35.4684 168.661 35.333 168.77 35.1663 168.854C35.0101 168.937 34.8538 168.979 34.6872 168.979H33.333L33.0413 170.354H32.1663L32.458 168.979H31.083C30.859 168.979 30.6768 168.911 30.5413 168.77C30.4007 168.619 30.333 168.447 30.333 168.249C30.333 168.223 30.333 168.197 30.333 168.166C30.3434 168.124 30.3538 168.093 30.3538 168.062L31.333 163.458C31.3747 163.291 31.4476 163.14 31.5622 162.999C31.6715 162.848 31.8018 162.729 31.958 162.645C32.1247 162.562 32.2913 162.52 32.458 162.52ZM32.6247 163.374C32.5101 163.374 32.4059 163.411 32.3122 163.479C32.2288 163.552 32.1715 163.64 32.1455 163.749L31.2913 167.749C31.2913 167.765 31.2913 167.781 31.2913 167.791C31.2913 167.807 31.2913 167.822 31.2913 167.833C31.2913 167.916 31.3174 167.989 31.3747 168.041C31.4424 168.098 31.5205 168.124 31.6038 168.124H34.5413C34.6507 168.124 34.7497 168.093 34.833 168.02C34.9163 167.953 34.9684 167.864 34.9997 167.749L35.8538 163.749C35.8538 163.739 35.8538 163.708 35.8538 163.666C35.8538 163.583 35.8226 163.515 35.7705 163.458C35.7132 163.406 35.6351 163.374 35.5413 163.374H32.6247Z" fill="white"/>
<path d="M41.8325 162.52H42.7284L41.6034 167.749C41.6034 167.765 41.6034 167.781 41.6034 167.791C41.6034 167.807 41.6034 167.822 41.6034 167.833C41.6034 167.916 41.6294 167.989 41.6867 168.041C41.7544 168.098 41.8325 168.124 41.9159 168.124H44.8534C44.9627 168.124 45.0617 168.093 45.145 168.02C45.2284 167.953 45.2804 167.864 45.3117 167.749L46.4159 162.52H47.3117L46.1242 168.062C46.0929 168.229 46.02 168.385 45.895 168.52C45.7804 168.661 45.645 168.77 45.4784 168.854C45.3221 168.937 45.1659 168.979 44.9992 168.979H41.395C41.1711 168.979 40.9888 168.911 40.8534 168.77C40.7127 168.619 40.645 168.447 40.645 168.249C40.645 168.223 40.645 168.197 40.645 168.166C40.6554 168.124 40.6659 168.093 40.6659 168.062L41.8325 162.52Z" fill="white"/>
<path d="M52.1447 162.52H53.0405L51.6655 168.979H50.7905L52.1447 162.52Z" fill="white"/>
<path d="M57.8644 162.52H58.7603L57.5728 168.124H61.7394L61.5519 168.979H56.5103L57.8644 162.52Z" fill="white"/>
<path d="M67.1984 162.52H72.2609L72.0734 163.374H67.9067L67.4901 165.333H70.7401L70.5734 166.166H67.3026L66.9067 168.124H71.0734L70.8859 168.979H65.8442L67.1984 162.52Z" fill="white"/>
<path d="M76.6232 162.52H81.1649C81.3836 162.52 81.5659 162.593 81.7065 162.729C81.842 162.869 81.9149 163.041 81.9149 163.249C81.9149 163.281 81.9149 163.312 81.9149 163.354C81.9149 163.385 81.9045 163.416 81.894 163.458L81.394 165.812C81.3628 165.994 81.2899 166.156 81.1649 166.291C81.0503 166.432 80.9149 166.541 80.7482 166.624C80.592 166.708 80.4357 166.749 80.269 166.749H80.2274L81.2274 168.979H80.1649L79.1649 166.749H76.6232L76.144 168.979H75.269L76.6232 162.52ZM76.7899 165.895H80.1024C80.2118 165.895 80.3159 165.864 80.4149 165.791C80.5086 165.723 80.5659 165.635 80.5815 165.52L80.9565 163.749C80.9565 163.739 80.9565 163.708 80.9565 163.666C80.9565 163.583 80.9253 163.515 80.8732 163.458C80.8159 163.406 80.7378 163.374 80.644 163.374H77.3315L76.7899 165.895Z" fill="white"/>
<path d="M93.7114 163.374L92.7114 168.124H95.5656C95.7166 168.124 95.8625 168.093 96.0031 168.02C96.1541 167.953 96.2791 167.854 96.3781 167.729C96.4718 167.593 96.5448 167.453 96.5864 167.312L97.2323 164.208C97.2427 164.182 97.2531 164.156 97.2531 164.124C97.2531 164.083 97.2531 164.052 97.2531 164.02C97.2531 163.843 97.1906 163.687 97.0656 163.562C96.9406 163.437 96.7791 163.374 96.5864 163.374H93.7114ZM93.0031 162.52H97.0864C97.4198 162.52 97.6906 162.635 97.8989 162.854C98.1073 163.062 98.2114 163.328 98.2114 163.645C98.2114 163.677 98.201 163.718 98.1906 163.77C98.1906 163.828 98.1906 163.874 98.1906 163.916L97.3989 167.604C97.3416 167.854 97.2323 168.083 97.0656 168.291C96.8989 168.499 96.6958 168.666 96.4614 168.791C96.2218 168.916 95.9718 168.979 95.7114 168.979H91.6489L93.0031 162.52Z" fill="white"/>
<path d="M103.316 162.52H108.378L108.191 163.374H104.024L103.607 165.333H106.857L106.691 166.166H103.42L103.024 168.124H107.191L107.003 168.979H101.961L103.316 162.52Z" fill="white"/>
<path d="M120.929 162.52H122.283L123.471 168.979H122.554L122.221 167.27H118.971L117.929 168.979H116.992L120.929 162.52ZM119.513 166.416H122.054L121.45 163.27L119.513 166.416Z" fill="white"/>
<path d="M129.179 162.52H130.075L128.95 167.749C128.95 167.765 128.95 167.781 128.95 167.791C128.95 167.807 128.95 167.822 128.95 167.833C128.95 167.916 128.976 167.989 129.033 168.041C129.101 168.098 129.179 168.124 129.262 168.124H132.2C132.309 168.124 132.408 168.093 132.491 168.02C132.575 167.953 132.627 167.864 132.658 167.749L133.762 162.52H134.658L133.47 168.062C133.439 168.229 133.366 168.385 133.241 168.52C133.127 168.661 132.991 168.77 132.825 168.854C132.668 168.937 132.512 168.979 132.345 168.979H128.741C128.517 168.979 128.335 168.911 128.2 168.77C128.059 168.619 127.991 168.447 127.991 168.249C127.991 168.223 127.991 168.197 127.991 168.166C128.002 168.124 128.012 168.093 128.012 168.062L129.179 162.52Z" fill="white"/>
<path d="M138.991 162.52H144.449L144.283 163.374H141.991L140.783 168.979H139.908L141.116 163.374H138.824L138.991 162.52Z" fill="white"/>
<path d="M149.729 162.52H153.333C153.552 162.52 153.734 162.598 153.875 162.749C154.01 162.89 154.083 163.062 154.083 163.27C154.083 163.302 154.083 163.333 154.083 163.374C154.083 163.406 154.073 163.432 154.062 163.458L153.083 168.062C153.052 168.229 152.979 168.385 152.854 168.52C152.739 168.661 152.604 168.77 152.437 168.854C152.281 168.937 152.125 168.979 151.958 168.979H148.354C148.13 168.979 147.948 168.911 147.812 168.77C147.672 168.619 147.604 168.447 147.604 168.249C147.604 168.223 147.604 168.197 147.604 168.166C147.614 168.124 147.625 168.093 147.625 168.062L148.604 163.458C148.646 163.291 148.719 163.14 148.833 162.999C148.943 162.848 149.073 162.729 149.229 162.645C149.396 162.562 149.562 162.52 149.729 162.52ZM149.896 163.374C149.781 163.374 149.677 163.411 149.583 163.479C149.5 163.552 149.443 163.64 149.417 163.749L148.562 167.749C148.562 167.765 148.562 167.781 148.562 167.791C148.562 167.807 148.562 167.822 148.562 167.833C148.562 167.916 148.588 167.989 148.646 168.041C148.713 168.098 148.792 168.124 148.875 168.124H151.812C151.922 168.124 152.021 168.093 152.104 168.02C152.187 167.953 152.239 167.864 152.271 167.749L153.125 163.749C153.125 163.739 153.125 163.708 153.125 163.666C153.125 163.583 153.094 163.515 153.042 163.458C152.984 163.406 152.906 163.374 152.812 163.374H149.896Z" fill="white"/>
<path d="M160.041 162.52H164.374L164.208 163.374H160.208C160.093 163.374 159.989 163.411 159.895 163.479C159.812 163.552 159.755 163.64 159.729 163.749L159.479 164.937C159.479 164.968 159.479 164.994 159.479 165.02C159.479 165.119 159.505 165.197 159.562 165.249C159.63 165.307 159.708 165.333 159.791 165.333H163.062C163.281 165.333 163.463 165.406 163.604 165.541C163.739 165.682 163.812 165.854 163.812 166.062C163.812 166.093 163.812 166.124 163.812 166.166C163.812 166.197 163.801 166.223 163.791 166.249L163.395 168.062C163.364 168.229 163.291 168.385 163.166 168.52C163.051 168.661 162.921 168.77 162.77 168.854C162.614 168.937 162.447 168.979 162.27 168.979H157.916L158.104 168.124H162.124C162.234 168.124 162.333 168.093 162.416 168.02C162.499 167.953 162.551 167.864 162.583 167.749L162.833 166.562C162.843 166.552 162.854 166.52 162.854 166.479C162.854 166.395 162.817 166.328 162.749 166.27C162.692 166.203 162.624 166.166 162.541 166.166H159.249C159.041 166.166 158.864 166.104 158.729 165.979C158.588 165.843 158.52 165.661 158.52 165.437C158.52 165.411 158.52 165.385 158.52 165.354C158.52 165.328 158.52 165.291 158.52 165.249L158.916 163.458C158.958 163.281 159.031 163.119 159.145 162.979C159.255 162.843 159.385 162.729 159.541 162.645C159.692 162.562 159.859 162.52 160.041 162.52Z" fill="white"/>
</g>
<mask id="mask6_547_347" style="mask-type:luminance" maskUnits="userSpaceOnUse" x="176" y="18" width="3" height="228">
<path d="M176.797 18.667H178.667V245.334H176.797V18.667Z" fill="white"/>
</mask>
<g mask="url(#mask6_547_347)">
<path d="M177.771 244.261L177.974 241.417L178.141 237.386C178.24 234.302 178.323 230.625 178.391 226.36L178.479 219.672C178.526 214.969 178.563 209.979 178.589 204.709C178.641 193.959 178.661 183.292 178.656 172.703C178.661 141.724 178.656 109.917 178.651 77.2712C178.63 52.2451 178.328 32.7139 177.74 18.6826L177.276 47.9795L177.172 55.5264C177.104 60.7191 177.052 66.0785 177.01 71.5993C176.927 82.8024 176.875 93.6774 176.849 104.229C176.823 111.542 176.813 123.709 176.818 140.724C176.818 154.735 176.839 165.933 176.87 174.318C176.891 179.354 176.917 184.334 176.948 189.25L177.005 196.427C177.047 201.131 177.099 205.469 177.156 209.438L177.453 226.698L177.526 230.667C177.604 234.339 177.677 237.479 177.755 240.099C177.76 240.011 177.766 241.401 177.771 244.261Z" fill="white"/>
</g>
<mask id="mask7_547_347" style="mask-type:luminance" maskUnits="userSpaceOnUse" x="176" y="2" width="3" height="229">
<path d="M176.797 2.66699H178.667V230.667H176.797V2.66699Z" fill="white"/>
</mask>
<g mask="url(#mask7_547_347)">
<path d="M177.771 3.80237L177.974 6.64612L178.141 10.6774C178.24 13.7659 178.323 17.443 178.391 21.7086L178.479 28.3961C178.526 33.0992 178.563 38.0836 178.589 43.3597C178.641 54.1045 178.661 64.7763 178.656 75.3597C178.661 106.339 178.656 138.151 178.651 170.792C178.63 195.818 178.328 215.349 177.74 229.386L177.276 200.089L177.172 192.542C177.104 187.344 177.052 181.99 177.01 176.469C176.927 165.266 176.875 154.386 176.849 143.834C176.823 136.521 176.813 124.36 176.818 107.344C176.818 93.3336 176.839 82.1357 176.87 73.7503C176.891 68.7086 176.917 63.7295 176.948 58.8128L177.005 51.6357C177.047 46.9378 177.099 42.5992 177.156 38.6253L177.453 21.3649L177.526 17.3961C177.604 13.7295 177.677 10.5836 177.755 7.96903C177.76 8.05237 177.766 6.66174 177.771 3.80237Z" fill="white"/>
</g>
<mask id="mask8_547_347" style="mask-type:luminance" maskUnits="userSpaceOnUse" x="177" y="18" width="3" height="228">
<path d="M177.729 18.667H179.729V245.334H177.729V18.667Z" fill="white"/>
</mask>
<g mask="url(#mask8_547_347)">
<path d="M178.708 244.261L178.906 241.417L179.078 237.386C179.177 234.302 179.26 230.625 179.328 226.36L179.411 219.672C179.464 214.969 179.5 209.979 179.526 204.709C179.573 193.959 179.599 183.292 179.594 172.703C179.599 141.724 179.594 109.917 179.583 77.2712C179.568 52.2451 179.266 32.7139 178.677 18.6826L178.214 47.9795L178.109 55.5264C178.042 60.7191 177.99 66.0785 177.948 71.5993C177.865 82.8024 177.812 93.6774 177.786 104.229C177.76 111.542 177.75 123.709 177.755 140.724C177.755 154.735 177.776 165.933 177.807 174.318C177.828 179.354 177.854 184.334 177.885 189.25L177.943 196.427C177.984 201.131 178.031 205.469 178.094 209.438L178.391 226.698L178.464 230.667C178.542 234.339 178.615 237.479 178.687 240.099C178.698 240.011 178.703 241.401 178.708 244.261Z" fill="white"/>
</g>
<mask id="mask9_547_347" style="mask-type:luminance" maskUnits="userSpaceOnUse" x="177" y="2" width="3" height="229">
<path d="M177.729 2.66699H179.729V230.667H177.729V2.66699Z" fill="white"/>
</mask>
<g mask="url(#mask9_547_347)">
<path d="M178.708 3.80237L178.906 6.64612L179.078 10.6774C179.177 13.7659 179.26 17.443 179.328 21.7086L179.411 28.3961C179.464 33.0992 179.5 38.0836 179.526 43.3597C179.573 54.1045 179.599 64.7763 179.594 75.3597C179.599 106.339 179.594 138.151 179.583 170.792C179.568 195.818 179.266 215.349 178.677 229.386L178.214 200.089L178.109 192.542C178.042 187.344 177.99 181.99 177.948 176.469C177.865 165.266 177.812 154.386 177.786 143.834C177.76 136.521 177.75 124.36 177.755 107.344C177.755 93.3336 177.776 82.1357 177.807 73.7503C177.828 68.7086 177.854 63.7295 177.885 58.8128L177.943 51.6357C177.984 46.9378 178.031 42.5992 178.094 38.6253L178.391 21.3649L178.464 17.3961C178.542 13.7295 178.615 10.5836 178.687 7.96903C178.698 8.05237 178.703 6.66174 178.708 3.80237Z" fill="white"/>
</g>
<mask id="mask10_547_347" style="mask-type:luminance" maskUnits="userSpaceOnUse" x="176" y="16" width="3" height="227">
<path d="M176.797 16H178.667V242.667H176.797V16Z" fill="white"/>
</mask>
<g mask="url(#mask10_547_347)">
<path d="M177.771 241.698L177.974 238.854L178.141 234.823C178.24 231.74 178.323 228.062 178.391 223.797L178.479 217.109C178.526 212.406 178.563 207.417 178.589 202.146C178.641 191.396 178.661 180.729 178.656 170.141C178.661 139.161 178.656 107.354 178.651 74.7083C178.63 49.6823 178.328 30.151 177.74 16.1198L177.276 45.4166L177.172 52.9635C177.104 58.1562 177.052 63.5156 177.01 69.0364C176.927 80.2395 176.875 91.1145 176.849 101.667C176.823 108.979 176.813 121.146 176.818 138.161C176.818 152.172 176.839 163.37 176.87 171.755C176.891 176.792 176.917 181.771 176.948 186.687L177.005 193.865C177.047 198.568 177.099 202.906 177.156 206.875L177.453 224.135L177.526 228.104C177.604 231.776 177.677 234.917 177.755 237.536C177.76 237.448 177.766 238.839 177.771 241.698Z" fill="white"/>
</g>
<mask id="mask11_547_347" style="mask-type:luminance" maskUnits="userSpaceOnUse" x="176" y="0" width="3" height="228">
<path d="M176.797 0H178.667V228H176.797V0Z" fill="white"/>
</mask>
<g mask="url(#mask11_547_347)">
<path d="M177.771 1.23962L177.974 4.08337L178.141 8.11462C178.24 11.2032 178.323 14.8802 178.391 19.1459L178.479 25.8334C178.526 30.5365 178.563 35.5209 178.589 40.7969C178.641 51.5417 178.661 62.2136 178.656 72.7969C178.661 103.776 178.656 135.589 178.651 168.229C178.63 193.255 178.328 212.787 177.74 226.823L177.276 197.526L177.172 189.979C177.104 184.781 177.052 179.427 177.01 173.906C176.927 162.703 176.875 151.823 176.849 141.271C176.823 133.958 176.813 121.797 176.818 104.781C176.818 90.7709 176.839 79.573 176.87 71.1875C176.891 66.1459 176.917 61.1667 176.948 56.25L177.005 49.0782C177.047 44.375 177.099 40.0365 177.156 36.0678L177.453 18.8021L177.526 14.8334C177.604 11.1667 177.677 8.02087 177.755 5.40629C177.76 5.48962 177.766 4.099 177.771 1.23962Z" fill="white"/>
</g>
</svg>
